<svg xmlns="http://www.w3.org/2000/svg" width="410" height="404" viewBox="0 0 410 404" fill="none">
  <path d="M399.641 59.5246L215.643 388.545C211.844 395.338 202.084 395.378 198.228 388.618L10.5817 59.5563C6.38087 52.1896 12.6802 43.2665 21.0281 44.7586L205.223 77.6824C206.398 77.8924 207.601 77.8904 208.776 77.6763L389.119 44.8058C397.439 43.2894 403.768 52.1434 399.641 59.5246Z" fill="url(#paint0_linear)" />
  <path d="M292.965 1.5744L156.801 28.2552C155.563 28.4982 154.472 29.1817 153.71 30.1844L50.3307 168.49C48.1596 171.404 50.4036 175.552 54.0285 175.237L123.348 169.16C127.437 168.8 131.137 171.695 131.499 175.789L134.91 214.665C135.299 219.053 139.539 221.978 143.768 220.63L167.964 212.716C172.209 211.363 176.483 214.312 176.846 218.727L182.219 283.363C182.641 288.542 189.682 290.427 192.455 286.146L194.188 283.464C196.167 280.414 200.176 279.585 203.224 281.566L231.861 300.285C235.594 302.6 240.622 300.69 241.756 296.436L291.345 110.64C292.611 105.854 288.437 101.438 283.617 102.299L214.153 114.513C209.437 115.355 205.345 110.931 206.604 106.274L220.922 52.2885C222.221 47.4706 218.04 43.0205 213.167 43.9488L132.542 59.2934C127.52 60.2515 123.345 55.532 125.182 50.7404L141.447 7.14697C142.216 5.07979 143.986 3.53394 146.111 3.12089L289.931 0.13131C295.213 0.0257741 298.178 6.27566 294.72 10.1931L220.75 92.4786C217.429 96.2408 219.575 102.187 224.428 103.014L292.007 114.678C296.787 115.493 299.876 120.695 298.162 125.245L241.378 278.986C239.419 284.327 232.412 285.428 228.528 281.179L202.62 252.226C199.281 248.522 193.254 249.35 191.033 253.726L175.612 283.401C173.368 287.819 167.019 288.121 164.441 283.848L150.267 260.766C148.179 257.366 143.292 256.973 140.717 259.981L117.486 286.985C113.851 291.165 106.643 288.88 106.289 283.292L101.787 211.023C101.509 206.655 97.6018 203.432 93.2702 203.863L48.4753 208.255C43.3973 208.768 39.8656 203.146 42.5053 198.737L141.857 31.7985C142.578 30.5504 143.832 29.6887 145.241 29.4476L292.133 3.94736C297.029 3.09594 300.548 8.77212 297.965 13.1074L226.461 130.316C223.904 134.649 227.572 140.107 232.31 139.558L306.925 130.755C311.687 130.204 314.98 135.472 312.713 139.683L226.851 296.831C224.635 301.135 218.327 301.437 215.768 297.304L196.487 265.613C194.269 261.994 188.838 261.662 186.229 265.047L165.508 292.534C163.057 295.742 158.251 295.794 155.738 292.648L135.39 266.412C132.773 262.971 127.448 263.56 125.673 267.517L101.917 320.748C99.5233 325.998 92.3866 326.595 89.0419 321.78L4.83621 201.857C1.71978 197.44 5.52052 191.347 10.8437 192.355L90.0407 207.789C94.1521 208.569 97.7399 205.251 97.4686 201.077L94.6909 158.407C94.4268 154.34 97.7301 150.899 101.815 151.072L210.696 155.741C215.679 155.949 219.212 150.307 216.631 145.851L167.126 62.2876C164.739 58.2064 168.068 52.9426 172.694 53.7725L294.831 75.9084C299.478 76.7426 302.579 81.8125 300.969 86.277L255.278 215.479C253.356 220.853 246.27 221.602 242.728 217.137L219.449 188.903C216.039 184.701 209.522 185.626 207.181 190.492L192.279 220.508C189.988 225.275 183.38 225.801 180.145 221.386L164.11 200.261C160.921 195.9 154.271 196.532 151.851 201.253L137.279 229.54C134.687 234.742 127.677 235.567 124.11 231.208L9.83397 89.7806C6.01051 85.0141 9.64844 78.1464 15.224 78.9574L292.965 1.5744Z" fill="url(#paint1_linear)" />
  <defs>
    <linearGradient id="paint0_linear" x1="6.00017" y1="32.9999" x2="235" y2="344" gradientUnits="userSpaceOnUse">
      <stop stop-color="#41D1FF" />
      <stop offset="1" stop-color="#BD34FE" />
    </linearGradient>
    <linearGradient id="paint1_linear" x1="194.651" y1="8.81818" x2="236.076" y2="292.989" gradientUnits="userSpaceOnUse">
      <stop stop-color="#FFEA83" />
      <stop offset="0.0833333" stop-color="#FFDD35" />
      <stop offset="1" stop-color="#FFA800" />
    </linearGradient>
  </defs>
</svg>
